<!DOCTYPE svg PUBLIC "-//W3C//DTD SVG 1.1//EN" "http://www.w3.org/Graphics/SVG/1.1/DTD/svg11.dtd">
<!-- Uploaded to: SVG Repo, www.svgrepo.com, Transformed by: SVG Repo Mixer Tools -->
<svg width="64px" height="64px" viewBox="0 0 24 24" fill="none" xmlns="http://www.w3.org/2000/svg">
<g id="SVGRepo_bgCarrier" stroke-width="0"/>
<g id="SVGRepo_tracerCarrier" stroke-linecap="round" stroke-linejoin="round"/>
<g id="SVGRepo_iconCarrier">
<path d="M4 21V18.5C4 15.4624 6.46243 13 9.5 13H13.5M8 21V18M16 6.5C16 8.70914 14.2091 10.5 12 10.5C9.79086 10.5 8 8.70914 8 6.5C8 4.29086 9.79086 2.5 12 2.5C14.2091 2.5 16 4.29086 16 6.5ZM22 15.5C22 17.9853 17.5 22 17.5 22C17.5 22 13 17.9853 13 15.5C13 13.0147 15.0147 11 17.5 11C19.9853 11 22 13.0147 22 15.5ZM19 15.5C19 16.3284 18.3284 17 17.5 17C16.6716 17 16 16.3284 16 15.5C16 14.6716 16.6716 14 17.5 14C18.3284 14 19 14.6716 19 15.5Z" stroke="#000000" stroke-linecap="round" stroke-linejoin="round" stroke-width="1.4"/>
</g>
</svg>